<?xml version="1.0" encoding="UTF-8" standalone="no"?>
<!DOCTYPE svg PUBLIC "-//W3C//DTD SVG 1.1//EN" "http://www.w3.org/Graphics/SVG/1.1/DTD/svg11.dtd">
<svg width="100%" height="100%" viewBox="0 0 4251 1323" version="1.1" xmlns="http://www.w3.org/2000/svg" xmlns:xlink="http://www.w3.org/1999/xlink" xml:space="preserve" xmlns:serif="http://www.serif.com/" style="fill-rule:evenodd;clip-rule:evenodd;stroke-miterlimit:10;">
    <g transform="matrix(1,0,0,1,1226.843072,436.115443)">
        <g transform="matrix(3.671121,0,-0.915313,3.671121,2551.648498,224.665914)">
            <rect x="0" y="0" width="90" height="150" style="fill:none;fill-rule:nonzero;stroke:#0D0E10;stroke-width:7px;"/>
        </g>
        <g transform="matrix(3.671121,0,-0.915313,3.671121,2221.247595,224.665914)">
            <rect x="0" y="0" width="90" height="150" style="fill:none;fill-rule:nonzero;stroke:#0D0E10;stroke-width:7px;"/>
        </g>
        <g transform="matrix(3.671121,0,-0.915313,3.671121,1890.648498,224.665914)">
            <rect x="0" y="0" width="90" height="150" style="fill:none;fill-rule:nonzero;stroke:#0D0E10;stroke-width:7px;"/>
        </g>
        <g transform="matrix(3.671121,0,-0.915313,3.671121,1560.247595,224.665914)">
            <rect x="0" y="0" width="90" height="150" style="fill:none;fill-rule:nonzero;stroke:#0D0E10;stroke-width:7px;"/>
        </g>
        <g transform="matrix(3.671121,0,-0.915313,3.671121,1229.648498,224.665914)">
            <rect x="0" y="0" width="90" height="150" style="fill:none;fill-rule:nonzero;stroke:#0D0E10;stroke-width:7px;"/>
        </g>
        <g transform="matrix(3.671121,0,-0.915313,3.671121,899.247595,224.665914)">
            <rect x="0" y="0" width="90" height="150" style="fill:none;fill-rule:nonzero;stroke:#0D0E10;stroke-width:7px;"/>
        </g>
        <g transform="matrix(3.671121,0,-0.915313,3.671121,568.648498,224.665914)">
            <rect x="0" y="0" width="90" height="150" style="fill:none;fill-rule:nonzero;stroke:#0D0E10;stroke-width:7px;"/>
        </g>
        <g transform="matrix(3.671121,0,-0.915313,3.671121,238.247595,224.665914)">
            <rect x="0" y="0" width="90" height="150" style="fill:none;fill-rule:nonzero;stroke:#0D0E10;stroke-width:7px;"/>
        </g>
    </g>
    <g transform="matrix(1,0,0,1,40.843072,-113.884557)">
        <g transform="matrix(3.671121,0,-0.915313,3.671121,3212.648498,224.665914)">
            <rect x="0" y="0" width="90" height="150" style="fill:none;fill-rule:nonzero;stroke:#0D0E10;stroke-width:7px;"/>
        </g>
        <g transform="matrix(3.671121,0,-0.915313,3.671121,2882.247595,224.665914)">
            <rect x="0" y="0" width="90" height="150" style="fill:none;fill-rule:nonzero;stroke:#0D0E10;stroke-width:7px;"/>
        </g>
        <g transform="matrix(3.671121,0,-0.915313,3.671121,2551.648498,224.665914)">
            <rect x="0" y="0" width="90" height="150" style="fill:none;fill-rule:nonzero;stroke:#0D0E10;stroke-width:7px;"/>
        </g>
        <g transform="matrix(3.671121,0,-0.915313,3.671121,2221.247595,224.665914)">
            <rect x="0" y="0" width="90" height="150" style="fill:none;fill-rule:nonzero;stroke:#0D0E10;stroke-width:7px;"/>
        </g>
        <g transform="matrix(3.671121,0,-0.915313,3.671121,1890.648498,224.665914)">
            <rect x="0" y="0" width="90" height="150" style="fill:none;fill-rule:nonzero;stroke:#0D0E10;stroke-width:7px;"/>
        </g>
        <g transform="matrix(3.671121,0,-0.915313,3.671121,1560.247595,224.665914)">
            <rect x="0" y="0" width="90" height="150" style="fill:none;fill-rule:nonzero;stroke:#0D0E10;stroke-width:7px;"/>
        </g>
        <g transform="matrix(3.671121,0,-0.915313,3.671121,1229.648498,224.665914)">
            <rect x="0" y="0" width="90" height="150" style="fill:none;fill-rule:nonzero;stroke:#0D0E10;stroke-width:7px;"/>
        </g>
        <g transform="matrix(3.671121,0,-0.915313,3.671121,899.247595,224.665914)">
            <rect x="0" y="0" width="90" height="150" style="fill:none;fill-rule:nonzero;stroke:#0D0E10;stroke-width:7px;"/>
        </g>
        <g transform="matrix(3.671121,0,-0.915313,3.671121,568.648498,224.665914)">
            <rect x="0" y="0" width="90" height="150" style="fill:none;fill-rule:nonzero;stroke:#0D0E10;stroke-width:7px;"/>
        </g>
        <g transform="matrix(3.671121,0,-0.915313,3.671121,238.247595,224.665914)">
            <rect x="0" y="0" width="90" height="150" style="fill:none;fill-rule:nonzero;stroke:#0D0E10;stroke-width:7px;"/>
        </g>
    </g>
    <g transform="matrix(3.640684,0,-0.915313,3.671121,477.410211,557.43443)">
        <g transform="matrix(133.333333,0,0,133.333333,818.4,-0)">
        </g>
        <text x="-81.6px" y="-0px" style="fill:#0D0E10;font-family:'SpaceMono-Bold', 'Space Mono', monospace;font-weight:700;font-size:133.333px;">S<tspan x="9.333px 100.267px 191.2px 282.133px 373.067px 464px 554.933px 645.867px 736.8px " y="-0px -0px -0px -0px -0px -0px -0px -0px -0px ">USPENSION</tspan></text>
    </g>
    <g transform="matrix(3.640684,0,-0.915313,3.671121,1668.410211,1094.43443)">
        <g transform="matrix(133.333333,0,0,133.333333,636.533333,-0)">
        </g>
        <text x="-81.6px" y="-0px" style="fill:#0D0E10;font-family:'SpaceMono-Bold', 'Space Mono', monospace;font-weight:700;font-size:133.333px;">E<tspan x="9.333px 100.267px 191.2px 282.133px 373.067px 464px 554.933px " y="-0px -0px -0px -0px -0px -0px -0px ">XPLORER</tspan></text>
    </g>
</svg>
